<svg xmlns="http://www.w3.org/2000/svg"  viewBox="0 0 50 50" width="50px" height="50px"><path d="M 25 6.0507812 C 13.42 6.0507813 4 13.573313 4 22.820312 C 4 28.430312 7.4165469 33.563406 13.185547 36.691406 C 11.422547 42.792406 11.368656 43.1625 11.347656 43.3125 C 11.293656 43.7665 11.435672 44.417766 12.013672 44.759766 C 12.263672 44.906766 12.53225 44.962891 12.78125 44.962891 C 12.95325 44.962891 13.114906 44.937531 13.253906 44.894531 C 13.651906 44.793531 14.849125 44.206766 21.703125 39.384766 C 22.786125 39.521766 23.893 39.589844 25 39.589844 C 36.579 39.589844 46 32.067312 46 22.820312 C 46 13.573312 36.579 6.0507812 25 6.0507812 z M 25 8.0507812 C 35.477 8.0507812 44 14.676312 44 22.820312 C 44 30.964313 35.477 37.589844 25 37.589844 C 23.851 37.589844 22.703844 37.510562 21.589844 37.351562 L 21.195312 37.294922 L 20.871094 37.523438 C 17.683094 39.769438 14.998 41.595125 13.625 42.453125 C 13.925 41.364125 14.468938 39.451937 15.335938 36.460938 L 15.568359 35.65625 L 14.818359 35.285156 C 9.2963594 32.550156 6 27.889312 6 22.820312 C 6 14.675313 14.523 8.0507812 25 8.0507812 z M 33.585938 17.972656 C 32.958937 17.972656 32.449219 18.481422 32.449219 19.107422 L 32.449219 26.876953 C 32.449219 27.503953 32.959938 28.013672 33.585938 28.013672 C 34.211938 28.013672 34.720703 27.504953 34.720703 26.876953 L 34.720703 24.398438 L 35.115234 24.003906 L 37.777344 27.533203 C 37.993344 27.820203 38.325547 27.984375 38.685547 27.984375 C 38.933547 27.984375 39.168188 27.905859 39.367188 27.755859 C 39.609188 27.572859 39.766594 27.306859 39.808594 27.005859 C 39.850594 26.705859 39.774797 26.406063 39.591797 26.164062 L 36.796875 22.462891 L 39.384766 19.873047 C 39.562766 19.695047 39.650766 19.451594 39.634766 19.183594 C 39.618766 18.918594 39.499781 18.661891 39.300781 18.462891 C 39.086781 18.249891 38.803531 18.128906 38.519531 18.128906 C 38.276531 18.128906 38.051672 18.217859 37.888672 18.380859 L 34.720703 21.548828 L 34.720703 19.107422 C 34.720703 18.480422 34.211937 17.972656 33.585938 17.972656 z M 11.277344 18.007812 C 10.663344 18.007812 10.162109 18.506141 10.162109 19.119141 C 10.162109 19.732141 10.662344 20.230469 11.277344 20.230469 L 13.048828 20.230469 L 13.048828 26.978516 C 13.048828 27.577516 13.559547 28.0625 14.185547 28.0625 C 14.811547 28.0625 15.321312 27.577516 15.320312 26.978516 L 15.320312 20.230469 L 17.091797 20.230469 C 17.705797 20.230469 18.205078 19.732141 18.205078 19.119141 C 18.205078 18.506141 17.706797 18.007812 17.091797 18.007812 L 11.277344 18.007812 z M 20.902344 18.007812 C 20.163344 18.024812 19.581625 18.584906 19.390625 19.128906 L 16.675781 26.277344 C 16.330781 27.348344 16.630359 27.746625 16.943359 27.890625 C 17.165359 27.993625 17.416016 28.048828 17.666016 28.048828 C 18.139016 28.048828 18.500375 27.855875 18.609375 27.546875 L 19.173828 26.074219 L 22.636719 26.074219 L 23.197266 27.546875 C 23.306266 27.856875 23.668578 28.048828 24.142578 28.048828 C 24.392578 28.048828 24.642234 27.993625 24.865234 27.890625 C 25.178234 27.746625 25.478813 27.349391 25.132812 26.275391 L 22.417969 19.128906 C 22.225969 18.583906 21.644344 18.024812 20.902344 18.007812 z M 27.171875 18.042969 C 26.532875 18.042969 26.013672 18.551734 26.013672 19.177734 L 26.013672 26.890625 C 26.013672 27.464625 26.501562 27.931641 27.101562 27.931641 L 30.744141 27.931641 C 31.344141 27.931641 31.832031 27.464625 31.832031 26.890625 C 31.832031 26.316625 31.344141 25.849609 30.744141 25.849609 L 28.330078 25.849609 L 28.330078 19.177734 C 28.330078 18.550734 27.810875 18.042969 27.171875 18.042969 z M 20.904297 20.841797 L 22.037109 24.0625 L 19.769531 24.0625 L 20.904297 20.841797 z"/></svg>